                                                                        S      1
1H,,1H;,8Hcev.iges,8Hcev.iges,                                          G      1
23HHarmonyWare Translators,24HHarmonyWare IGES v1.9.17,32,38,6,         G      2
308,15,,1.,10,2HCM,1,1.,15H20230204.180713,1.D-6,1.44683,,,11,0,15H20230G      3
204.180713;                                                             G      4
     502       1       0       0       0       0       0       000010000D      1
     502       0       0       4       1                               0D      2
     126       5       0       0       0       0       0       000010000D      3
     126       0       0       5       0                               0D      4
     126      10       0       0       0       0       0       000010000D      5
     126       0       0      11       0                               0D      6
     126      21       0       0       0       0       0       000010000D      7
     126       0       0       8       0                               0D      8
     126      29       0       0       0       0       0       000010000D      9
     126       0       0      10       0                               0D     10
     126      39       0       0       0       0       0       000010000D     11
     126       0       0       5       0                               0D     12
     126      44       0       0       0       0       0       000010000D     13
     126       0       0      11       0                               0D     14
     126      55       0       0       0       0       0       000010000D     15
     126       0       0       5       0                               0D     16
     126      60       0       0       0       0       0       000010000D     17
     126       0       0       9       0                               0D     18
     504      69       0       0       0       0       0       000010000D     19
     504       0       0       2       1                               0D     20
     128      71       0       0       0       0       0       000010000D     21
     128       0       0      35       0                               0D     22
     508     106       0       0       0       0       0       000010000D     23
     508       0       0       1       1                               0D     24
     510     107       0       0       0       0       0       000010000D     25
     510       0       0       1       1                               0D     26
     128     108       0       0       0       0       0       000010000D     27
     128       0       0      54       0                               0D     28
     508     162       0       0       0       0       0       000010000D     29
     508       0       0       1       1                               0D     30
     510     163       0       0       0       0       0       000010000D     31
     510       0       0       1       1                               0D     32
     128     164       0       0       0       0       0       000010000D     33
     128       0       0      23       0                               0D     34
     508     187       0       0       0       0       0       000010000D     35
     508       0       0       1       1                               0D     36
     510     188       0       0       0       0       0       000010000D     37
     510       0       0       1       1                               0D     38
     128     189       0       0       0       0       0       000010000D     39
     128       0       0      27       0                               0D     40
     508     216       0       0       0       0       0       000010000D     41
     508       0       0       1       1                               0D     42
     510     217       0       0       0       0       0       000010000D     43
     510       0       0       1       1                               0D     44
     128     218       0       0       0       0       0       000010000D     45
     128       0       0       4       0                               0D     46
     508     222       0       0       0       0       0       000010000D     47
     508       0       0       1       1                               0D     48
     510     223       0       0       0       0       0       000010000D     49
     510       0       0       1       1                               0D     50
     514     224       0       0       0       0       0       000010000D     51
     514       0       0       1       1                               0D     52
     186     225       0       0       0       0       0       000010000D     53
     186       0       0       1       0                               0D     54
     308     226       0       0       0       0       0       000010000D     55
     308       0       0       1       0                               0D     56
     124     227       0       0       0       0       0       000010000D     57
     124       0       0       1       0                               0D     58
     408     228       0       0       0       0      57       000000000D     59
     408       0       0       1       0                               0D     60
502,5,-2.0381D-12,0.,5.D-16,0.191443566322403,1.686841D-10,            1P      1
0.939296800408978,0.33779046587,1.768354D-10,0.9846827166,             1P      2
1.26839861142143,7.03652D-11,0.391819942602237,1.3153,                 1P      3
5.50124D-11,0.30633;                                                   1P      4
126,2,2,0,0,0,0,0.,0.,0.,1.,1.,1.,0.999999999933029,                   3P      5
0.979855052318628,0.999999999933029,-2.03810000013649D-12,0.,          3P      6
5.00000000033486D-16,-2.0380565424187D-12,1.66934690608514D-10,        3P      7
0.489158015839857,0.19144356632,3.20553300021468D-10,                  3P      8
0.93929680041,0.,1.,0.,0.,0.;                                          3P      9
126,8,2,0,1,0,0,0.,0.,0.,0.25,0.25,0.5,0.5,0.75,0.75,1.,1.,1.,         5P     10
1.,0.707106781186548,1.,0.707106781186548,1.,0.707106781186548,        5P     11
1.,0.707106781186548,1.,0.19144356632,1.686847D-10,                    5P     12
0.93929680041,0.19144356632,0.939296800578685,0.939296800241315,       5P     13
0.19144356632,0.93929680041,-1.686844D-10,0.19144356632,               5P     14
0.939296800241315,-0.939296800578684,0.19144356632,                    5P     15
-1.686848D-10,-0.939296800409999,0.19144356632,                        5P     16
-0.939296800578685,-0.939296800241315,0.19144356632,                   5P     17
-0.93929680041,1.686852D-10,0.19144356632,-0.939296800241315,          5P     18
0.939296800578685,0.19144356632,1.686847D-10,0.93929680041,0.,         5P     19
1.,0.,0.,0.;                                                           5P     20
126,4,2,0,0,0,0,0.,0.,0.,0.5,0.5,1.,1.,1.,0.999999999925613,           7P     21
0.90730104111509,0.999999999925613,0.90730104111509,                   7P     22
0.999999999925613,0.191443566322403,1.68684100012548D-10,              7P     23
0.939296800408978,0.209655364668285,1.76374205195805D-10,              7P     24
0.982117966614487,0.254100140106151,1.78849500013304D-10,              7P     25
0.99590142809804,0.298544915544016,1.81324822241807D-10,               7P     26
1.00968488958159,0.33779046587,1.76834800013154D-10,                   7P     27
0.9846827166,0.,1.,0.,0.,0.;                                           7P     28
126,8,2,0,1,0,0,0.,0.,0.,0.25,0.25,0.5,0.5,0.75,0.75,1.,1.,1.,         9P     29
1.,0.707106781186548,1.,0.707106781186548,1.,0.707106781186548,        9P     30
1.,0.707106781186548,1.,0.33779046587,1.768354D-10,0.9846827166,       9P     31
0.33779046587,-0.984682716423165,0.984682716776836,                    9P     32
0.33779046587,-0.9846827166,1.768357D-10,0.33779046587,                9P     33
-0.984682716776836,-0.984682716423164,0.33779046587,                   9P     34
-1.768355D-10,-0.9846827166,0.33779046587,0.984682716423164,           9P     35
-0.984682716776835,0.33779046587,0.9846827166,-1.768353D-10,           9P     36
0.33779046587,0.984682716776836,0.984682716423165,0.33779046587,       9P     37
1.768354D-10,0.9846827166,0.,1.,0.,0.,0.;                              9P     38
126,3,3,0,0,1,0,0.,0.,0.,0.,1.,1.,1.,1.,1.,1.,1.,1.,                  11P     39
0.33779046587,3.36042D-10,0.9846827166,0.647993181053333,             11P     40
2.686024D-10,0.787061791933334,0.958195896236667,2.01159D-10,         11P     41
0.589440867266667,1.26839861142,1.337161D-10,0.3918199426,0.,1.,      11P     42
0.,0.,0.;                                                             11P     43
126,8,2,0,1,0,0,0.,0.,0.,0.25,0.25,0.5,0.5,0.75,0.75,1.,1.,1.,        13P     44
1.,0.707106781186548,1.,0.707106781186548,1.,0.707106781186548,       13P     45
1.,0.707106781186548,1.,1.26839861142143,-8.D-16,                     13P     46
0.391819942602237,1.26839861142142,-0.391819942602239,                13P     47
0.391819942602236,1.26839861142142,-0.391819942602238,-2.2D-15,       13P     48
1.26839861142142,-0.391819942602237,-0.39181994260224,                13P     49
1.26839861142143,1.5D-15,-0.391819942602239,1.26839861142143,         13P     50
0.39181994260224,-0.391819942602238,1.26839861142143,                 13P     51
0.391819942602239,1.D-16,1.26839861142143,0.391819942602237,          13P     52
0.391819942602238,1.26839861142143,-8.D-16,0.391819942602237,0.,      13P     53
1.,0.,0.,0.;                                                          13P     54
126,2,2,0,0,0,0,0.,0.,0.,1.,1.,1.,0.999999999925613,                  15P     55
0.876726755645093,0.999999999925613,1.26839861142143,                 15P     56
7.03652000052343D-11,0.391819942602237,1.3153,                        15P     57
6.49992710192464D-11,0.361940462747483,1.3153,                        15P     58
5.50124000040922D-11,0.30633,0.,1.,0.,0.,0.;                          15P     59
126,8,2,0,1,0,0,0.,0.,0.,1.5707963267949,1.5707963267949,             17P     60
3.14159265358979,3.14159265358979,4.71238898038469,                   17P     61
4.71238898038469,6.28318530717959,6.28318530717959,                   17P     62
6.28318530717959,1.,0.707106781186548,1.,0.707106781186548,1.,        17P     63
0.707106781186548,1.,0.707106781186548,1.,1.3153,-1.D-16,             17P     64
0.30633,1.3153,-0.30633,0.30633,1.3153,-0.30633,0.,1.3153,            17P     65
-0.30633,-0.30633,1.3153,0.,-0.30633,1.3153,0.30633,-0.30633,         17P     66
1.3153,0.30633,0.,1.3153,0.30633,0.30633,1.3153,-1.D-16,0.30633,      17P     67
0.,6.28318530717959,0.,0.,0.;                                         17P     68
504,8,3,1,1,1,2,5,1,2,1,2,7,1,2,1,3,9,1,3,1,3,11,1,3,1,4,13,1,4,      19P     69
1,4,15,1,4,1,5,17,1,5,1,5;                                            19P     70
128,2,8,2,2,0,1,0,0,0,1.16867246713544,1.16867246713544,              21P     71
1.16867246713544,1.5707963267949,1.5707963267949,                     21P     72
1.5707963267949,359.99999998971,359.99999998971,359.99999998971,      21P     73
449.99999998971,449.99999998971,539.99999998971,539.99999998971,      21P     74
629.99999998971,629.99999998971,719.99999998971,719.99999998971,      21P     75
719.99999998971,1.,0.979855052384251,1.,0.707106781186548,            21P     76
0.692862152120803,0.707106781186548,1.,0.979855052384251,1.,          21P     77
0.707106781186548,0.692862152120803,0.707106781186548,1.,             21P     78
0.979855052384251,1.,0.707106781186548,0.692862152120803,             21P     79
0.707106781186548,1.,0.979855052384251,1.,0.707106781186548,          21P     80
0.692862152120803,0.707106781186548,1.,0.979855052384251,1.,          21P     81
-2.0381D-12,0.,5.D-16,-2.03805654228221D-12,                          21P     82
8.78460541592892D-11,0.489158015839857,0.19144356632,                 21P     83
1.686847D-10,0.93929680041,-2.0381645860921D-12,0.,                   21P     84
5.65685424949238D-16,-2.03806773927203D-12,-0.489158015752011,        21P     85
0.489158015927703,0.19144356632,-0.939296800241315,                   21P     86
0.939296800578685,-2.0381D-12,0.,5.D-16,-2.03846476592613D-12,        21P     87
-0.489158015839857,8.78463603270221D-11,0.19144356632,                21P     88
-0.93929680041,1.68685D-10,-2.0381645860921D-12,0.,                   21P     89
5.65685424949238D-16,-2.03878938353918D-12,-0.489158015927703,        21P     90
-0.48915801575201,0.19144356632,-0.939296800578684,                   21P     91
-0.939296800241315,-2.0381D-12,0.,5.D-16,-2.03877093365907D-12,       21P     92
-8.78458500474672D-11,-0.489158015839856,0.19144356632,               21P     93
-1.686846D-10,-0.939296800409999,-2.0381645860921D-12,0.,             21P     94
5.65685424949238D-16,-2.03878938353918D-12,0.489158015752011,         21P     95
-0.489158015927702,0.19144356632,0.939296800241315,                   21P     96
-0.939296800578684,-2.0381D-12,0.,5.D-16,-2.03836271001515D-12,       21P     97
0.489158015839857,-8.78455438797343D-11,0.19144356632,                21P     98
0.93929680041,-1.686844D-10,-2.0381645860921D-12,0.,                  21P     99
5.65685424949238D-16,-2.03806773927203D-12,0.489158015927703,         21P    100
0.489158015752011,0.191443566320001,0.939296800578685,                21P    101
0.939296800241315,-2.0381D-12,0.,5.D-16,-2.03805654228221D-12,        21P    102
8.78460541592892D-11,0.489158015839857,0.19144356632,                 21P    103
1.686847D-10,0.93929680041,1.16867246713544,1.5707963267949,          21P    104
359.99999998971,719.99999998971;                                      21P    105
508,3,0,19,1,1,0,0,19,2,0,0,0,19,1,0,0;                               23P    106
510,21,1,1,23;                                                        25P    107
128,4,8,2,2,0,1,0,0,0,1.00356431989883,1.00356431989883,              27P    108
1.00356431989883,1.87151655691896,1.87151655691896,                   27P    109
2.73946879393909,2.73946879393909,2.73946879393909,0.,0.,0.,90.,      27P    110
90.,180.,180.,270.,270.,360.,360.,360.,1.,0.907301041182581,1.,       27P    111
0.907301041182581,1.,0.707106781186548,0.641558718797818,             27P    112
0.707106781186548,0.641558718797818,0.707106781186548,1.,             27P    113
0.907301041182581,1.,0.907301041182581,1.,0.707106781186548,          27P    114
0.641558718797818,0.707106781186548,0.641558718797818,                27P    115
0.707106781186548,1.,0.907301041182581,1.,0.907301041182581,1.,       27P    116
0.707106781186548,0.641558718797818,0.707106781186548,                27P    117
0.641558718797818,0.707106781186548,1.,0.907301041182581,1.,          27P    118
0.907301041182581,1.,0.707106781186548,0.641558718797818,             27P    119
0.707106781186548,0.641558718797818,0.707106781186548,1.,             27P    120
0.907301041182581,1.,0.907301041182581,1.,0.191443566322403,          27P    121
-2.D-16,0.939296800408978,0.209655364668285,                          27P    122
-2.2043400252172D-16,0.982117966614487,0.254100140106151,             27P    123
-2.D-16,0.99590142809804,0.298544915544016,-2.2043400252172D-16,      27P    124
1.00968488958159,0.33779046587,-2.D-16,0.9846827166,                  27P    125
0.191443566322403,-0.939296800408978,0.939296800408978,               27P    126
0.209655364668285,-0.982117966614486,0.982117966614486,               27P    127
0.254100140106151,-0.99590142809804,0.995901428098039,                27P    128
0.298544915544016,-1.00968488958159,1.00968488958159,                 27P    129
0.33779046587,-0.9846827166,0.9846827166,0.191443566322403,           27P    130
-0.939296800408978,0.,0.209655364668285,-0.982117966614486,           27P    131
-1.1021700126086D-16,0.25410014010615,-0.995901428098039,             27P    132
-1.D-16,0.298544915544015,-1.00968488958159,                          27P    133
-1.1021700126086D-16,0.33779046587,-0.9846827166,-1.D-16,             27P    134
0.191443566322402,-0.939296800408978,-0.939296800408978,              27P    135
0.209655364668285,-0.982117966614486,-0.982117966614486,              27P    136
0.25410014010615,-0.995901428098039,-0.995901428098039,               27P    137
0.298544915544015,-1.00968488958159,-1.00968488958159,                27P    138
0.337790465869999,-0.9846827166,-0.9846827166,0.191443566322402,      27P    139
1.D-16,-0.939296800408978,0.209655364668285,1.1021700126086D-16,      27P    140
-0.982117966614486,0.25410014010615,1.D-16,-0.995901428098039,        27P    141
0.298544915544015,1.1021700126086D-16,-1.00968488958159,              27P    142
0.337790465869999,1.D-16,-0.9846827166,0.191443566322402,             27P    143
0.939296800408978,-0.939296800408978,0.209655364668285,               27P    144
0.982117966614486,-0.982117966614486,0.25410014010615,                27P    145
0.995901428098039,-0.995901428098039,0.298544915544015,               27P    146
1.00968488958159,-1.00968488958159,0.33779046587,0.9846827166,        27P    147
-0.9846827166,0.191443566322403,0.939296800408978,1.D-16,             27P    148
0.209655364668285,0.982117966614486,1.1021700126086D-16,              27P    149
0.25410014010615,0.995901428098039,1.D-16,0.298544915544015,          27P    150
1.00968488958159,1.1021700126086D-16,0.33779046587,0.9846827166,      27P    151
1.D-16,0.191443566322403,0.939296800408978,0.939296800408978,         27P    152
0.209655364668285,0.982117966614486,0.982117966614486,                27P    153
0.254100140106151,0.995901428098039,0.99590142809804,                 27P    154
0.298544915544016,1.00968488958159,1.00968488958159,                  27P    155
0.33779046587,0.9846827166,0.9846827166,0.191443566322403,            27P    156
-2.D-16,0.939296800408978,0.209655364668285,                          27P    157
-2.2043400252172D-16,0.982117966614487,0.254100140106151,             27P    158
-2.D-16,0.99590142809804,0.298544915544016,-2.2043400252172D-16,      27P    159
1.00968488958159,0.33779046587,-2.D-16,0.9846827166,                  27P    160
1.00356431989883,2.73946879393909,0.,360.;                            27P    161
508,4,0,19,2,1,0,0,19,3,1,0,0,19,4,1,0,0,19,3,0,0;                    29P    162
510,27,1,1,29;                                                        31P    163
128,1,8,1,2,0,1,0,0,0,0.,0.,1.,1.,359.99999998971,                    33P    164
359.99999998971,359.99999998971,449.99999998971,449.99999998971,      33P    165
539.99999998971,539.99999998971,629.99999998971,629.99999998971,      33P    166
719.99999998971,719.99999998971,719.99999998971,1.,1.,                33P    167
0.707106781186548,0.707106781186548,1.,1.,0.707106781186548,          33P    168
0.707106781186548,1.,1.,0.707106781186548,0.707106781186548,1.,       33P    169
1.,0.707106781186548,0.707106781186548,1.,1.,0.33779046587,           33P    170
1.768354D-10,0.9846827166,1.26839861142,7.03657D-11,                  33P    171
0.3918199426,0.337790465870001,-0.984682716423164,                    33P    172
0.984682716776836,1.26839861142,-0.391819942529635,                   33P    173
0.391819942670366,0.33779046587,-0.9846827166,1.768359D-10,           33P    174
1.26839861142,-0.3918199426,7.03655D-11,0.33779046587,                33P    175
-0.984682716776836,-0.984682716423164,1.26839861142,                  33P    176
-0.391819942670366,-0.391819942529635,0.33779046587,                  33P    177
-1.768361D-10,-0.9846827166,1.26839861142,-7.03655D-11,               33P    178
-0.3918199426,0.337790465869999,0.984682716423164,                    33P    179
-0.984682716776836,1.26839861142,0.391819942529635,                   33P    180
-0.391819942670366,0.33779046587,0.9846827166,-1.768357D-10,          33P    181
1.26839861142,0.3918199426,-7.03657D-11,0.33779046587,                33P    182
0.984682716776836,0.984682716423164,1.26839861142,                    33P    183
0.391819942670366,0.391819942529634,0.33779046587,1.768354D-10,       33P    184
0.9846827166,1.26839861142,7.03657D-11,0.3918199426,0.,1.,            33P    185
359.99999998971,719.99999998971;                                      33P    186
508,4,0,19,5,1,0,0,19,6,1,0,0,19,5,0,0,0,19,4,0,0;                    35P    187
510,33,1,1,35;                                                        37P    188
128,2,8,2,2,0,1,0,0,0,0.,0.,0.,1.00356431988509,                      39P    189
1.00356431988509,1.00356431988509,0.,0.,0.,90.,90.,180.,180.,         39P    190
270.,270.,360.,360.,360.,1.,0.87672675571031,1.,                      39P    191
0.707106781186548,0.619939434210442,0.707106781186548,1.,             39P    192
0.87672675571031,1.,0.707106781186548,0.619939434210442,              39P    193
0.707106781186548,1.,0.87672675571031,1.,0.707106781186548,           39P    194
0.619939434210442,0.707106781186548,1.,0.87672675571031,1.,           39P    195
0.707106781186548,0.619939434210442,0.707106781186548,1.,             39P    196
0.87672675571031,1.,1.26839861142143,-1.D-16,0.391819942602237,       39P    197
1.3153,-1.14060623048947D-16,0.361940462747482,1.3153,-1.D-16,        39P    198
0.30633,1.26839861142143,-0.391819942602237,0.391819942602237,        39P    199
1.3153,-0.361940462747483,0.361940462747482,1.3153,-0.30633,          39P    200
0.30633,1.26839861142143,-0.391819942602237,0.,1.3153,                39P    201
-0.361940462747483,0.,1.3153,-0.30633,0.,1.26839861142143,            39P    202
-0.391819942602237,-0.391819942602237,1.3153,-0.361940462747483,      39P    203
-0.361940462747482,1.3153,-0.30633,-0.30633,1.26839861142143,         39P    204
-1.D-16,-0.391819942602237,1.3153,-1.14060623048947D-16,              39P    205
-0.361940462747482,1.3153,-1.D-16,-0.30633,1.26839861142143,          39P    206
0.391819942602237,-0.391819942602237,1.3153,0.361940462747482,        39P    207
-0.361940462747483,1.3153,0.30633,-0.30633,1.26839861142143,          39P    208
0.391819942602237,-1.D-16,1.3153,0.361940462747482,                   39P    209
-1.14060623048947D-16,1.3153,0.30633,-1.D-16,1.26839861142143,        39P    210
0.391819942602237,0.391819942602237,1.3153,0.361940462747482,         39P    211
0.361940462747482,1.3153,0.30633,0.30633,1.26839861142143,            39P    212
-1.D-16,0.391819942602237,1.3153,-1.14060623048947D-16,               39P    213
0.361940462747482,1.3153,-1.D-16,0.30633,0.,1.00356431988509,0.,      39P    214
360.;                                                                 39P    215
508,4,0,19,6,0,0,0,19,7,1,0,0,19,8,1,0,0,19,7,0,0;                    41P    216
510,39,1,1,41;                                                        43P    217
128,1,1,1,1,0,0,1,0,0,0.,0.,61.268,61.268,0.,0.,61.268,61.268,        45P    218
1.,1.,1.,1.,1.3153,0.30634,0.30634,1.3153,0.30634,-0.30634,           45P    219
1.3153,-0.30634,0.30634,1.3153,-0.30634,-0.30634,0.,61.268,0.,        45P    220
61.268;                                                               45P    221
508,1,0,19,8,0,0;                                                     47P    222
510,45,1,1,47;                                                        49P    223
514,5,25,1,31,1,37,1,43,1,49,1;                                       51P    224
186,51,0,0;                                                           53P    225
308,0,,1,53;                                                          55P    226
124,1.,0.,0.,0.,0.,1.,0.,0.,0.,0.,1.,0.;                              57P    227
408,55,0.,0.,0.,1.;                                                   59P    228
S      1G      4D     60P    228                                        T      1
